<svg width="24" height="24" viewBox="0 0 24 24" fill="none" xmlns="http://www.w3.org/2000/svg">
<path id="Instagram" fill-rule="evenodd" clip-rule="evenodd" d="M11.8489 0.415283C8.6694 0.415283 8.27072 0.42876 7.02201 0.485735C5.7759 0.542571 4.92485 0.740496 4.18018 1.02993C3.41032 1.32907 2.75743 1.72938 2.10654 2.38022C1.4557 3.03111 1.05539 3.684 0.756244 4.45386C0.466814 5.19853 0.268889 6.04958 0.212054 7.29569C0.155079 8.5444 0.141602 8.94308 0.141602 12.1226C0.141602 15.3021 0.155079 15.7008 0.212054 16.9495C0.268889 18.1956 0.466814 19.0467 0.756244 19.7913C1.05539 20.5612 1.4557 21.2141 2.10654 21.865C2.75743 22.5158 3.41032 22.9161 4.18018 23.2153C4.92485 23.5047 5.7759 23.7026 7.02201 23.7595C8.27072 23.8164 8.6694 23.8299 11.8489 23.8299C15.0284 23.8299 15.4271 23.8164 16.6758 23.7595C17.9219 23.7026 18.773 23.5047 19.5177 23.2153C20.2875 22.9161 20.9404 22.5158 21.5913 21.865C22.2421 21.2141 22.6425 20.5612 22.9416 19.7913C23.231 19.0467 23.4289 18.1956 23.4858 16.9495C23.5428 15.7008 23.5562 15.3021 23.5562 12.1226C23.5562 8.94308 23.5428 8.5444 23.4858 7.29569C23.4289 6.04958 23.231 5.19853 22.9416 4.45386C22.6425 3.684 22.2421 3.03111 21.5913 2.38022C20.9404 1.72938 20.2875 1.32907 19.5177 1.02993C18.773 0.740496 17.9219 0.542571 16.6758 0.485735C15.4271 0.42876 15.0284 0.415283 11.8489 0.415283ZM11.8489 2.52468C14.9749 2.52468 15.3452 2.53662 16.5797 2.59295C17.7211 2.64499 18.341 2.83572 18.7536 2.99605C19.3 3.20842 19.69 3.46212 20.0997 3.87182C20.5094 4.28147 20.7631 4.67146 20.9754 5.21793C21.1358 5.63047 21.3265 6.25036 21.3785 7.39181C21.4349 8.6263 21.4468 8.99659 21.4468 12.1226C21.4468 15.2486 21.4349 15.6188 21.3785 16.8533C21.3265 17.9948 21.1358 18.6147 20.9754 19.0272C20.7631 19.5737 20.5094 19.9637 20.0997 20.3733C19.69 20.783 19.3 21.0367 18.7536 21.2491C18.341 21.4094 17.7211 21.6002 16.5797 21.6522C15.3454 21.7085 14.9751 21.7205 11.8489 21.7205C8.72271 21.7205 8.35251 21.7085 7.11816 21.6522C5.97671 21.6002 5.35681 21.4094 4.94428 21.2491C4.39781 21.0367 4.00782 20.783 3.59816 20.3733C3.18851 19.9637 2.93477 19.5737 2.72239 19.0272C2.56206 18.6147 2.37134 17.9948 2.31929 16.8533C2.26297 15.6188 2.25102 15.2486 2.25102 12.1226C2.25102 8.99659 2.26297 8.6263 2.31929 7.39181C2.37134 6.25036 2.56206 5.63047 2.72239 5.21793C2.93477 4.67146 3.18846 4.28147 3.59816 3.87182C4.00782 3.46212 4.39781 3.20842 4.94428 2.99605C5.35681 2.83572 5.97671 2.64499 7.11816 2.59295C8.35265 2.53662 8.72294 2.52468 11.8489 2.52468ZM5.83706 12.1227C5.83706 8.80243 8.52864 6.11085 11.8489 6.11085C15.1692 6.11085 17.8608 8.80243 17.8608 12.1227C17.8608 15.443 15.1692 18.1346 11.8489 18.1346C8.52864 18.1346 5.83706 15.443 5.83706 12.1227ZM11.8489 16.0251C9.69365 16.0251 7.94648 14.2779 7.94648 12.1227C7.94648 9.9674 9.69365 8.22022 11.8489 8.22022C14.0042 8.22022 15.7514 9.9674 15.7514 12.1227C15.7514 14.2779 14.0042 16.0251 11.8489 16.0251ZM18.0983 7.27811C18.8742 7.27811 19.5032 6.64915 19.5032 5.87325C19.5032 5.09735 18.8742 4.46835 18.0983 4.46835C17.3224 4.46835 16.6934 5.09735 16.6934 5.87325C16.6934 6.64915 17.3224 7.27811 18.0983 7.27811Z" fill="#F5F5F6"/>
</svg>
