<svg width="24" height="24" viewBox="0 0 24 24" fill="none" xmlns="http://www.w3.org/2000/svg">
<path fill-rule="evenodd" clip-rule="evenodd" d="M23.5562 22.1224C23.5562 22.8361 22.9777 23.4153 22.264 23.4153H16.2973V14.3475H19.341L19.797 10.8141H16.2973V8.55749C16.2973 7.53445 16.5818 6.83732 18.0487 6.83732L19.9201 6.83668V3.6757C19.5961 3.63296 18.4856 3.53666 17.1934 3.53666C14.4955 3.53666 12.6484 5.18348 12.6484 8.20797V10.8141H9.59713V14.3475H12.6484V23.4153H1.4338C0.720095 23.4153 0.141602 22.8361 0.141602 22.1224V1.29284C0.141602 0.578494 0.720095 0 1.4338 0H22.264C22.9777 0 23.5562 0.578494 23.5562 1.29284V22.1224Z" fill="#F5F5F6"/>
</svg>
