<svg width="256" height="256" viewBox="0 0 256 256" fill="none" xmlns="http://www.w3.org/2000/svg">
<path d="M118.8 10.4C92.0001 13.4 67.4001 27.3 51.7001 48.4C45.0001 57.4 40.8001 65.3 37.4001 75.6C35.5001 81.2 33.5001 89.8 33.5001 92C33.5001 92.7 33.0001 93.1 31.6001 93.5C28.8001 94.2 24.5001 96.5 21.5001 98.8C17.0001 102.3 13.7001 107.1 11.5001 113.1L10.2001 116.8L10.1001 134.8C9.90007 155.4 10.1001 157.2 13.3001 163.5C16.7001 170.3 22.7001 175.7 30.3001 178.6C33.5001 179.8 34.2001 179.9 40.4001 179.9C46.2001 179.9 47.5001 179.8 50.1001 178.9C59.2001 175.7 66.3001 168.6 69.6001 159.4C70.6001 156.5 70.7001 155.9 70.8001 137.7C70.9001 116.6 70.8001 115 67.7001 108.7C65.6001 104.5 62.2001 100.6 58.2001 97.8L55.3001 95.7L55.9001 91.9C56.8001 87 59.6001 78.4 62.0001 73.4C67.3001 62.2 77.4001 50.9 88.0001 44C99.7001 36.4 112 32.7 126.1 32.2C138.3 31.9 148 33.6 158.3 37.9C167.4 41.8 175.1 47 182.3 54.3C192.2 64.3 199 77.1 201.8 90.9C202.2 92.9 202.5 94.6 202.4 94.6C202.3 94.7 200.6 95.8 198.7 97.1C192.2 101.5 187.7 107.6 185.9 114.9C185.1 118.1 185 120.1 185 136.3C185 156.1 185.3 158.3 188.2 163.9C190.8 168.8 195.6 173.9 200 176.4C200.8 176.8 199.8 179.2 195.7 185.8C183.2 206.4 163.9 219.6 141.2 223.3C137.2 223.9 126.6 224.2 125.3 223.7C124.9 223.6 123.9 222.5 123 221.3C122.1 220.1 120.4 218.4 119.2 217.7C117.1 216.3 109.2 213.5 102.8 211.8C94.6001 209.7 87.3001 212.7 83.9001 219.6C81.3001 224.9 81.6001 230.4 84.9001 235.4C87.1001 238.6 90.2001 240.6 96.8001 242.9C110.5 247.5 115.7 247.2 121.4 241.4L123.7 239L129.2 239.1C151 239.7 172 232.4 188.7 218.3C198.8 209.8 208.1 197.6 213.6 185.5C214.6 183.2 215.6 181.1 215.8 180.8C216 180.5 217.5 180.2 219 180C228.4 179.1 238 172.3 242.4 163.4C245.4 157.3 245.7 155.5 245.7 136.2C245.7 116.9 245.5 115.1 242.4 108.9C239.4 102.7 233.6 97.3 227 94.6L224.7 93.6L223.5 87.4C215.7 47.9 184.3 18 143.8 11.2C138.8 10.2 124.2 9.8 118.8 10.4Z" fill="#EA001E"/>
</svg>
